<svg width="100" height="100" viewBox="0 0 24 24" xmlns="http://www.w3.org/2000/svg">
  <defs>
    <linearGradient id="apiGradient" x1="0%" y1="0%" x2="100%" y2="100%">
      <stop offset="0%" style="stop-color:#2196F3;stop-opacity:1" />
      <stop offset="100%" style="stop-color:#1976D2;stop-opacity:1" />
    </linearGradient>
  </defs>
  <rect x="0" y="0" width="24" height="24" rx="5" ry="5" fill="url(#apiGradient)" />
  <g transform="translate(4, 4) scale(0.67)">
    <path d="M23,1 C23,1 16.471872,0.541707069 14,3 C13.9767216,3.03685748 10,7 10,7 L5,8 L2,10 L10,14 L14,22 L16,19 L17,14 C17,14 20.9631426,10.0232786 21,10 C23.4582929,7.5281282 23,1 23,1 Z" fill="none" stroke="white" stroke-width="1.5"/>
    <circle cx="16" cy="8" r="1.5" fill="white"/>
    <path d="M7,17 C6,16 4,16 3,17 C2,18 2,22 2,22 C2,22 6,22 7,21 C8,20 8,18 7,17 Z" fill="white" opacity="0.7"/>
  </g>
</svg>
