<svg width="100" height="100" viewBox="0 0 512 512" xmlns="http://www.w3.org/2000/svg">
  <defs>
    <linearGradient id="ingestGradient" x1="0%" y1="0%" x2="100%" y2="100%">
      <stop offset="0%" style="stop-color:#E91E63;stop-opacity:1" />
      <stop offset="100%" style="stop-color:#d81b60;stop-opacity:1" />
    </linearGradient>
  </defs>
  <rect x="0" y="0" width="512" height="512" rx="50" ry="50" fill="url(#ingestGradient)" />
  <g transform="translate(56, 56) scale(0.78)" fill="white">
    <path d="M331.41 483.51v-239.2a7.347 7.347 0 0 0-2.01-3.78 7.224 7.224 0 0 0-5.11-2.15H187.75a7.338 7.338 0 0 0-7.26 7.26v236.47c0 1.91.77 3.75 2.15 5.08a6.81 6.81 0 0 0 4.96 2.15h136.82c1.92-.01 3.77-.79 5.11-2.15a7.775 7.775 0 0 0 1.98-3.82l-.1.14z" opacity="0.9"/>
    <path d="M250.45 222.77c-.5-.32-.97-.72-1.39-1.18l-16.04-17.37c-2.76-3.01-2.57-7.71.44-10.48 3.01-2.76 7.71-2.57 10.47.44l4.64 5.02v-31.26c0-4.1 3.33-7.43 7.43-7.43s7.43 3.33 7.43 7.43v32.7l5.36-4.47a7.404 7.404 0 0 1 10.42.96 7.392 7.392 0 0 1-.96 10.41l-18.29 15.26c-2.8 2.33-6.83 2.25-9.51-.03z" opacity="0.9"/>
  </g>
</svg>
